<mxfile host="app.diagrams.net" modified="2024-03-13T14:56:38.573Z" agent="Mozilla/5.0 (Windows NT 10.0; Win64; x64) AppleWebKit/537.36 (KHTML, like Gecko) Chrome/122.0.0.0 Safari/537.36 Edg/122.0.0.0" etag="DZ6cfj4NpN1HbT_l0nMm" version="24.0.5" type="github">
  <diagram name="第 1 页" id="dRnIr3VR5EekNSpaTsAQ">
    <mxGraphModel dx="3933" dy="2188" grid="0" gridSize="10" guides="1" tooltips="1" connect="1" arrows="1" fold="1" page="0" pageScale="1" pageWidth="827" pageHeight="1169" math="0" shadow="0">
      <root>
        <mxCell id="0" />
        <mxCell id="1" parent="0" />
        <mxCell id="ShnRU7looj-lI_qmTmtY-1" value="&lt;font style=&quot;font-size: 18px;&quot;&gt;以太坊&lt;/font&gt;" style="rounded=0;whiteSpace=wrap;html=1;" parent="1" vertex="1">
          <mxGeometry x="-414" y="288" width="120" height="60" as="geometry" />
        </mxCell>
        <mxCell id="ShnRU7looj-lI_qmTmtY-4" value="&lt;font style=&quot;font-size: 18px;&quot;&gt;evm&lt;/font&gt;&lt;div&gt;&lt;font style=&quot;font-size: 14px;&quot;&gt;以太坊虚拟机&lt;/font&gt;&lt;/div&gt;" style="whiteSpace=wrap;html=1;rounded=0;" parent="1" vertex="1">
          <mxGeometry x="-212" y="166" width="120" height="60" as="geometry" />
        </mxCell>
        <mxCell id="-V5YBUerZ1B9hY4nsgt0-7" value="" style="strokeWidth=2;html=1;shape=mxgraph.flowchart.annotation_2;align=left;labelPosition=right;pointerEvents=1;" vertex="1" parent="1">
          <mxGeometry x="-95" y="137" width="50" height="100" as="geometry" />
        </mxCell>
        <mxCell id="-V5YBUerZ1B9hY4nsgt0-11" value="以太坊结点会保存一份该计算机状态" style="text;strokeColor=none;fillColor=none;html=1;align=center;verticalAlign=middle;whiteSpace=wrap;rounded=0;fontSize=16;" vertex="1" parent="1">
          <mxGeometry x="-45" y="123" width="283" height="30" as="geometry" />
        </mxCell>
        <mxCell id="-V5YBUerZ1B9hY4nsgt0-12" value="参与者可以广播&lt;font color=&quot;#ff8000&quot;&gt;请求计算机&lt;/font&gt;进行计算，会导致以太坊&lt;font color=&quot;#ff8000&quot;&gt;虚拟机状态变化&lt;/font&gt;，并在网络中传播" style="text;strokeColor=none;fillColor=none;html=1;align=center;verticalAlign=middle;whiteSpace=wrap;rounded=0;fontSize=16;" vertex="1" parent="1">
          <mxGeometry x="-45" y="219" width="283" height="30" as="geometry" />
        </mxCell>
        <mxCell id="-V5YBUerZ1B9hY4nsgt0-14" value="" style="strokeWidth=2;html=1;shape=mxgraph.flowchart.annotation_2;align=left;labelPosition=right;pointerEvents=1;" vertex="1" parent="1">
          <mxGeometry x="-294" y="196" width="81" height="244" as="geometry" />
        </mxCell>
        <mxCell id="-V5YBUerZ1B9hY4nsgt0-32" value="" style="strokeWidth=2;html=1;shape=mxgraph.flowchart.annotation_2;align=left;labelPosition=right;pointerEvents=1;" vertex="1" parent="1">
          <mxGeometry x="244" y="180" width="50" height="100" as="geometry" />
        </mxCell>
        <mxCell id="-V5YBUerZ1B9hY4nsgt0-33" value="交易请求&lt;div&gt;（计算机请求）&lt;/div&gt;" style="text;strokeColor=none;fillColor=none;html=1;align=center;verticalAlign=middle;whiteSpace=wrap;rounded=0;fontSize=16;" vertex="1" parent="1">
          <mxGeometry x="297" y="166" width="85" height="30" as="geometry" />
        </mxCell>
        <mxCell id="-V5YBUerZ1B9hY4nsgt0-34" value="以太坊虚拟机的当前状态" style="text;strokeColor=none;fillColor=none;html=1;align=center;verticalAlign=middle;whiteSpace=wrap;rounded=0;fontSize=16;" vertex="1" parent="1">
          <mxGeometry x="301" y="264" width="79" height="30" as="geometry" />
        </mxCell>
        <mxCell id="-V5YBUerZ1B9hY4nsgt0-35" value="" style="strokeWidth=2;html=1;shape=mxgraph.flowchart.annotation_2;align=left;labelPosition=right;pointerEvents=1;rotation=-180;" vertex="1" parent="1">
          <mxGeometry x="390" y="176.5" width="50" height="100" as="geometry" />
        </mxCell>
        <mxCell id="-V5YBUerZ1B9hY4nsgt0-36" value="存储在区块链，区块链又由所有节点存储并达成一致" style="text;strokeColor=none;fillColor=none;html=1;align=center;verticalAlign=middle;whiteSpace=wrap;rounded=0;fontSize=16;" vertex="1" parent="1">
          <mxGeometry x="449" y="211.5" width="233" height="30" as="geometry" />
        </mxCell>
        <mxCell id="-V5YBUerZ1B9hY4nsgt0-39" value="" style="shape=partialRectangle;whiteSpace=wrap;html=1;bottom=0;right=0;fillColor=none;" vertex="1" parent="1">
          <mxGeometry x="338" y="117" width="120" height="36" as="geometry" />
        </mxCell>
        <mxCell id="-V5YBUerZ1B9hY4nsgt0-40" value="&lt;font color=&quot;#ff8000&quot;&gt;加密机制&lt;/font&gt;&lt;div&gt;&lt;font color=&quot;#030100&quot;&gt;一旦交易被验证有效并添加到区块链中，就无法篡改&lt;/font&gt;&lt;/div&gt;" style="text;strokeColor=none;fillColor=none;html=1;align=center;verticalAlign=middle;whiteSpace=wrap;rounded=0;fontSize=16;" vertex="1" parent="1">
          <mxGeometry x="458" y="102" width="210" height="30" as="geometry" />
        </mxCell>
        <mxCell id="-V5YBUerZ1B9hY4nsgt0-41" value="&lt;font style=&quot;font-size: 18px;&quot;&gt;eth&lt;/font&gt;&lt;div&gt;&lt;font style=&quot;font-size: 18px;&quot;&gt;以太币&lt;/font&gt;&lt;/div&gt;" style="whiteSpace=wrap;html=1;rounded=0;" vertex="1" parent="1">
          <mxGeometry x="-213" y="408" width="120" height="60" as="geometry" />
        </mxCell>
        <mxCell id="-V5YBUerZ1B9hY4nsgt0-42" value="" style="strokeWidth=2;html=1;shape=mxgraph.flowchart.annotation_2;align=left;labelPosition=right;pointerEvents=1;" vertex="1" parent="1">
          <mxGeometry x="-92" y="388" width="50" height="125" as="geometry" />
        </mxCell>
        <mxCell id="-V5YBUerZ1B9hY4nsgt0-44" value="" style="shape=partialRectangle;whiteSpace=wrap;html=1;bottom=0;right=0;fillColor=none;" vertex="1" parent="1">
          <mxGeometry x="-68" y="328" width="26" height="73" as="geometry" />
        </mxCell>
        <mxCell id="-V5YBUerZ1B9hY4nsgt0-45" value="目的：允许计算市场化" style="text;strokeColor=none;fillColor=none;html=1;align=center;verticalAlign=middle;whiteSpace=wrap;rounded=0;fontSize=16;" vertex="1" parent="1">
          <mxGeometry x="-33" y="311" width="163" height="30" as="geometry" />
        </mxCell>
        <mxCell id="-V5YBUerZ1B9hY4nsgt0-46" value="支付的以太币数量对应进行计算所需的资源" style="text;strokeColor=none;fillColor=none;html=1;align=center;verticalAlign=middle;whiteSpace=wrap;rounded=0;fontSize=16;" vertex="1" parent="1">
          <mxGeometry x="-33" y="371" width="189" height="30" as="geometry" />
        </mxCell>
        <mxCell id="-V5YBUerZ1B9hY4nsgt0-50" value="" style="strokeWidth=2;html=1;shape=mxgraph.flowchart.annotation_2;align=left;labelPosition=right;pointerEvents=1;" vertex="1" parent="1">
          <mxGeometry x="156" y="348" width="50" height="69" as="geometry" />
        </mxCell>
        <mxCell id="-V5YBUerZ1B9hY4nsgt0-52" value="&lt;br&gt;&lt;span style=&quot;color: rgb(76, 76, 76); font-family: __inter_879697, __inter_Fallback_879697, sans-serif; font-size: 16px; font-style: normal; font-variant-ligatures: normal; font-variant-caps: normal; font-weight: 400; letter-spacing: normal; orphans: 2; text-align: start; text-indent: 0px; text-transform: none; widows: 2; word-spacing: 0px; -webkit-text-stroke-width: 0px; white-space: normal; background-color: rgb(247, 247, 247); text-decoration-thickness: initial; text-decoration-style: initial; text-decoration-color: initial; display: inline !important; float: none;&quot;&gt;阻止恶意参与者通过请求&lt;/span&gt;&lt;span style=&quot;font-family: __inter_879697, __inter_Fallback_879697, sans-serif; font-size: 16px; font-style: normal; font-variant-ligatures: normal; font-variant-caps: normal; font-weight: 400; letter-spacing: normal; orphans: 2; text-align: start; text-indent: 0px; text-transform: none; widows: 2; word-spacing: 0px; -webkit-text-stroke-width: 0px; white-space: normal; background-color: rgb(247, 247, 247); text-decoration-thickness: initial; text-decoration-style: initial; text-decoration-color: initial; float: none; display: inline !important;&quot;&gt;&lt;font color=&quot;#ff9933&quot;&gt;执行无穷计算&lt;/font&gt;&lt;/span&gt;&lt;div&gt;&lt;br/&gt;&lt;/div&gt;" style="text;strokeColor=none;fillColor=none;html=1;align=center;verticalAlign=middle;whiteSpace=wrap;rounded=0;fontSize=16;" vertex="1" parent="1">
          <mxGeometry x="212" y="348" width="221" height="30" as="geometry" />
        </mxCell>
        <mxCell id="-V5YBUerZ1B9hY4nsgt0-53" value="&lt;span style=&quot;color: rgb(76, 76, 76); font-family: __inter_879697, __inter_Fallback_879697, sans-serif; text-align: start; background-color: rgb(247, 247, 247);&quot;&gt;其他资源密集型脚本来故意&lt;/span&gt;&lt;span style=&quot;font-family: __inter_879697, __inter_Fallback_879697, sans-serif; text-align: start; background-color: rgb(247, 247, 247);&quot;&gt;&lt;font color=&quot;#ff9933&quot;&gt;堵塞网络&lt;/font&gt;&lt;/span&gt;" style="text;strokeColor=none;fillColor=none;html=1;align=center;verticalAlign=middle;whiteSpace=wrap;rounded=0;fontSize=16;" vertex="1" parent="1">
          <mxGeometry x="209" y="404" width="221" height="30" as="geometry" />
        </mxCell>
        <mxCell id="-V5YBUerZ1B9hY4nsgt0-54" value="加密经济安全性" style="text;strokeColor=none;fillColor=none;html=1;align=center;verticalAlign=middle;whiteSpace=wrap;rounded=0;fontSize=16;" vertex="1" parent="1">
          <mxGeometry x="-42" y="496" width="120" height="30" as="geometry" />
        </mxCell>
        <mxCell id="-V5YBUerZ1B9hY4nsgt0-55" value="" style="strokeWidth=2;html=1;shape=mxgraph.flowchart.annotation_2;align=left;labelPosition=right;pointerEvents=1;" vertex="1" parent="1">
          <mxGeometry x="76" y="450.5" width="50" height="121" as="geometry" />
        </mxCell>
        <mxCell id="-V5YBUerZ1B9hY4nsgt0-57" value="&lt;span style=&quot;color: rgb(76, 76, 76); font-family: __inter_879697, __inter_Fallback_879697, sans-serif; text-align: start; background-color: rgb(247, 247, 247);&quot;&gt;1) 作为一种奖励方式，奖励&lt;/span&gt;&lt;span style=&quot;font-family: __inter_879697, __inter_Fallback_879697, sans-serif; text-align: start; background-color: rgb(247, 247, 247);&quot;&gt;&lt;font color=&quot;#ff9933&quot;&gt;提议区块或指出其他验证者不诚实行为&lt;/font&gt;&lt;/span&gt;&lt;span style=&quot;color: rgb(76, 76, 76); font-family: __inter_879697, __inter_Fallback_879697, sans-serif; text-align: start; background-color: rgb(247, 247, 247);&quot;&gt;的验证者&lt;/span&gt;" style="text;strokeColor=none;fillColor=none;html=1;align=center;verticalAlign=middle;whiteSpace=wrap;rounded=0;fontSize=16;" vertex="1" parent="1">
          <mxGeometry x="120" y="446" width="355" height="30" as="geometry" />
        </mxCell>
        <mxCell id="-V5YBUerZ1B9hY4nsgt0-58" value="&lt;span style=&quot;color: rgb(76, 76, 76); font-family: __inter_879697, __inter_Fallback_879697, sans-serif; text-align: start; background-color: rgb(247, 247, 247);&quot;&gt;2) 由&lt;/span&gt;&lt;span style=&quot;font-family: __inter_879697, __inter_Fallback_879697, sans-serif; text-align: start; background-color: rgb(247, 247, 247);&quot;&gt;&lt;font color=&quot;#ff9933&quot;&gt;验证者抵押&lt;/font&gt;&lt;/span&gt;&lt;span style=&quot;color: rgb(76, 76, 76); font-family: __inter_879697, __inter_Fallback_879697, sans-serif; text-align: start; background-color: rgb(247, 247, 247);&quot;&gt;，作为遏制不诚实行为的抵押品 — 如果验证者试图行为不端，它们的以太币可能会被销毁&lt;/span&gt;" style="text;strokeColor=none;fillColor=none;html=1;align=center;verticalAlign=middle;whiteSpace=wrap;rounded=0;fontSize=16;" vertex="1" parent="1">
          <mxGeometry x="122.5" y="507.5" width="400" height="7" as="geometry" />
        </mxCell>
        <mxCell id="-V5YBUerZ1B9hY4nsgt0-59" value="&lt;span style=&quot;color: rgb(76, 76, 76); font-family: __inter_879697, __inter_Fallback_879697, sans-serif; text-align: start; background-color: rgb(247, 247, 247);&quot;&gt;3) 用于对&lt;/span&gt;&lt;span style=&quot;font-family: __inter_879697, __inter_Fallback_879697, sans-serif; text-align: start; background-color: rgb(247, 247, 247);&quot;&gt;&lt;font color=&quot;#ff9933&quot;&gt;新提议的区块的“投票”&lt;/font&gt;&lt;/span&gt;&lt;span style=&quot;color: rgb(76, 76, 76); font-family: __inter_879697, __inter_Fallback_879697, sans-serif; text-align: start; background-color: rgb(247, 247, 247);&quot;&gt;进行加权，并影响共识机制的分叉选择部分。&lt;/span&gt;" style="text;strokeColor=none;fillColor=none;html=1;align=center;verticalAlign=middle;whiteSpace=wrap;rounded=0;fontSize=16;" vertex="1" parent="1">
          <mxGeometry x="126" y="554" width="310" height="30" as="geometry" />
        </mxCell>
        <mxCell id="-V5YBUerZ1B9hY4nsgt0-65" value="" style="strokeWidth=2;html=1;shape=mxgraph.flowchart.annotation_1;align=left;pointerEvents=1;" vertex="1" parent="1">
          <mxGeometry x="-254" y="440" width="42" height="248" as="geometry" />
        </mxCell>
        <mxCell id="-V5YBUerZ1B9hY4nsgt0-67" value="&lt;span style=&quot;font-size: 18px;&quot;&gt;智能合约&lt;/span&gt;" style="whiteSpace=wrap;html=1;rounded=0;" vertex="1" parent="1">
          <mxGeometry x="-212" y="657" width="120" height="60" as="geometry" />
        </mxCell>
        <mxCell id="-V5YBUerZ1B9hY4nsgt0-68" value="" style="strokeWidth=2;html=1;shape=mxgraph.flowchart.annotation_2;align=left;labelPosition=right;pointerEvents=1;" vertex="1" parent="1">
          <mxGeometry x="-92" y="635" width="50" height="100" as="geometry" />
        </mxCell>
        <mxCell id="-V5YBUerZ1B9hY4nsgt0-69" value="概念：&lt;span style=&quot;color: rgb(76, 76, 76); font-family: __inter_879697, __inter_Fallback_879697, sans-serif; text-align: start; background-color: rgb(247, 247, 247);&quot;&gt;上传至网络并由网络执行的程序&lt;/span&gt;" style="text;strokeColor=none;fillColor=none;html=1;align=center;verticalAlign=middle;whiteSpace=wrap;rounded=0;fontSize=16;" vertex="1" parent="1">
          <mxGeometry x="-40" y="618" width="291" height="30" as="geometry" />
        </mxCell>
        <mxCell id="-V5YBUerZ1B9hY4nsgt0-70" value="&lt;span style=&quot;color: rgb(76, 76, 76); font-family: __inter_879697, __inter_Fallback_879697, sans-serif; text-align: start; background-color: rgb(247, 247, 247);&quot;&gt;区块链作为其数据层&lt;/span&gt;" style="text;strokeColor=none;fillColor=none;html=1;align=center;verticalAlign=middle;whiteSpace=wrap;rounded=0;fontSize=16;" vertex="1" parent="1">
          <mxGeometry x="-40" y="717" width="155" height="30" as="geometry" />
        </mxCell>
        <mxCell id="-V5YBUerZ1B9hY4nsgt0-72" value="" style="line;strokeWidth=2;html=1;" vertex="1" parent="1">
          <mxGeometry x="-505" y="318" width="91" height="10" as="geometry" />
        </mxCell>
        <mxCell id="-V5YBUerZ1B9hY4nsgt0-73" value="所有在以太坊历史上&lt;font color=&quot;#ff9933&quot;&gt;提交&lt;/font&gt;给以太坊网络的&lt;font color=&quot;#ff9933&quot;&gt;区块序列&lt;/font&gt;。之所以如此命名，每一个区块包含对前一个区块的&lt;font color=&quot;#ff9933&quot;&gt;引用&lt;/font&gt;" style="text;strokeColor=none;fillColor=none;html=1;align=center;verticalAlign=middle;whiteSpace=wrap;rounded=0;fontSize=16;" vertex="1" parent="1">
          <mxGeometry x="-775" y="374" width="321" height="30" as="geometry" />
        </mxCell>
        <mxCell id="-V5YBUerZ1B9hY4nsgt0-74" value="" style="strokeWidth=2;html=1;shape=mxgraph.flowchart.annotation_1;align=left;pointerEvents=1;" vertex="1" parent="1">
          <mxGeometry x="-254" y="-46" width="42" height="242" as="geometry" />
        </mxCell>
        <mxCell id="-V5YBUerZ1B9hY4nsgt0-76" value="&lt;span style=&quot;font-size: 18px;&quot;&gt;Nodes&lt;/span&gt;&lt;br&gt;&lt;div&gt;&lt;span style=&quot;font-size: 14px;&quot;&gt;节点&lt;/span&gt;&lt;/div&gt;" style="whiteSpace=wrap;html=1;rounded=0;" vertex="1" parent="1">
          <mxGeometry x="-213" y="-81" width="120" height="60" as="geometry" />
        </mxCell>
        <mxCell id="-V5YBUerZ1B9hY4nsgt0-77" value="" style="line;strokeWidth=2;html=1;" vertex="1" parent="1">
          <mxGeometry x="-93" y="-56" width="56" height="10" as="geometry" />
        </mxCell>
        <mxCell id="-V5YBUerZ1B9hY4nsgt0-78" value="&lt;span style=&quot;color: rgb(76, 76, 76); font-family: __inter_879697, __inter_Fallback_879697, sans-serif; text-align: start; background-color: rgb(247, 247, 247);&quot;&gt;存储以太坊虚拟机状态的实体计算机&lt;/span&gt;" style="text;strokeColor=none;fillColor=none;html=1;align=center;verticalAlign=middle;whiteSpace=wrap;rounded=0;fontSize=16;" vertex="1" parent="1">
          <mxGeometry x="-36" y="-66" width="261" height="30" as="geometry" />
        </mxCell>
        <mxCell id="-V5YBUerZ1B9hY4nsgt0-79" value="" style="line;strokeWidth=2;html=1;rotation=90;" vertex="1" parent="1">
          <mxGeometry x="-391.5" y="249.5" width="69" height="10" as="geometry" />
        </mxCell>
        <mxCell id="-V5YBUerZ1B9hY4nsgt0-80" value="&lt;span style=&quot;font-size: 18px;&quot;&gt;区块链&lt;/span&gt;" style="rounded=0;whiteSpace=wrap;html=1;" vertex="1" parent="1">
          <mxGeometry x="-625" y="288" width="120" height="60" as="geometry" />
        </mxCell>
        <mxCell id="-V5YBUerZ1B9hY4nsgt0-82" value="&lt;span style=&quot;font-size: 18px;&quot;&gt;以太坊网络&lt;/span&gt;" style="rounded=0;whiteSpace=wrap;html=1;" vertex="1" parent="1">
          <mxGeometry x="-417" y="161" width="120" height="60" as="geometry" />
        </mxCell>
        <mxCell id="-V5YBUerZ1B9hY4nsgt0-84" value="" style="line;strokeWidth=2;html=1;direction=west;rotation=-245;" vertex="1" parent="1">
          <mxGeometry x="-419.13" y="53.36" width="231" height="10" as="geometry" />
        </mxCell>
        <mxCell id="-V5YBUerZ1B9hY4nsgt0-89" value="&lt;span style=&quot;font-family: __inter_879697, __inter_Fallback_879697, sans-serif; text-align: start; background-color: rgb(247, 247, 247);&quot;&gt;&lt;font color=&quot;#ff9933&quot;&gt;所有以太坊节点&lt;/font&gt;&lt;/span&gt;&lt;span style=&quot;color: rgb(76, 76, 76); font-family: __inter_879697, __inter_Fallback_879697, sans-serif; text-align: start; background-color: rgb(247, 247, 247);&quot;&gt;及其&lt;/span&gt;&lt;span style=&quot;font-family: __inter_879697, __inter_Fallback_879697, sans-serif; text-align: start; background-color: rgb(247, 247, 247);&quot;&gt;&lt;font color=&quot;#ff9933&quot;&gt;通信&lt;/font&gt;&lt;/span&gt;&lt;span style=&quot;color: rgb(76, 76, 76); font-family: __inter_879697, __inter_Fallback_879697, sans-serif; text-align: start; background-color: rgb(247, 247, 247);&quot;&gt;的集合&lt;/span&gt;" style="text;strokeColor=none;fillColor=none;html=1;align=center;verticalAlign=middle;whiteSpace=wrap;rounded=0;fontSize=16;rotation=-64;" vertex="1" parent="1">
          <mxGeometry x="-454" y="33.36" width="237" height="30" as="geometry" />
        </mxCell>
        <mxCell id="-V5YBUerZ1B9hY4nsgt0-90" value="" style="strokeWidth=2;html=1;shape=mxgraph.flowchart.annotation_1;align=left;pointerEvents=1;" vertex="1" parent="1">
          <mxGeometry x="-255" y="-288" width="42" height="242" as="geometry" />
        </mxCell>
        <mxCell id="-V5YBUerZ1B9hY4nsgt0-92" value="&lt;span style=&quot;font-size: 18px;&quot;&gt;账户&lt;/span&gt;" style="whiteSpace=wrap;html=1;rounded=0;" vertex="1" parent="1">
          <mxGeometry x="-213" y="-320" width="120" height="60" as="geometry" />
        </mxCell>
        <mxCell id="-V5YBUerZ1B9hY4nsgt0-94" value="" style="line;strokeWidth=2;html=1;" vertex="1" parent="1">
          <mxGeometry x="-93" y="-288" width="72" height="10" as="geometry" />
        </mxCell>
        <mxCell id="-V5YBUerZ1B9hY4nsgt0-95" value="&lt;span style=&quot;color: rgb(76, 76, 76); font-family: __inter_879697, __inter_Fallback_879697, sans-serif; text-align: start; background-color: rgb(247, 247, 247);&quot;&gt;存储以太币之处&lt;/span&gt;" style="text;strokeColor=none;fillColor=none;html=1;align=center;verticalAlign=middle;whiteSpace=wrap;rounded=0;fontSize=16;" vertex="1" parent="1">
          <mxGeometry x="-21" y="-301" width="135" height="30" as="geometry" />
        </mxCell>
        <mxCell id="-V5YBUerZ1B9hY4nsgt0-97" value="" style="line;strokeWidth=2;html=1;rotation=90;" vertex="1" parent="1">
          <mxGeometry x="-597" y="244" width="61" height="28" as="geometry" />
        </mxCell>
        <mxCell id="-V5YBUerZ1B9hY4nsgt0-98" value="&lt;span style=&quot;font-size: 18px;&quot;&gt;区块&lt;/span&gt;" style="rounded=0;whiteSpace=wrap;html=1;" vertex="1" parent="1">
          <mxGeometry x="-626.5" y="168" width="120" height="60" as="geometry" />
        </mxCell>
        <mxCell id="-V5YBUerZ1B9hY4nsgt0-100" value="&lt;span style=&quot;color: rgb(76, 76, 76); font-family: __inter_879697, __inter_Fallback_879697, sans-serif; text-align: start; background-color: rgb(247, 247, 247);&quot;&gt;交易分批或分区块“提交”&lt;/span&gt;" style="text;strokeColor=none;fillColor=none;html=1;align=center;verticalAlign=middle;whiteSpace=wrap;rounded=0;fontSize=16;" vertex="1" parent="1">
          <mxGeometry x="-682" y="132" width="215" height="30" as="geometry" />
        </mxCell>
        <mxCell id="-V5YBUerZ1B9hY4nsgt0-101" value="" style="shape=partialRectangle;whiteSpace=wrap;html=1;bottom=0;right=0;fillColor=none;" vertex="1" parent="1">
          <mxGeometry x="338" y="37" width="118" height="80" as="geometry" />
        </mxCell>
        <mxCell id="-V5YBUerZ1B9hY4nsgt0-102" value="交易：&lt;span style=&quot;color: rgb(76, 76, 76); font-family: __inter_879697, __inter_Fallback_879697, sans-serif; text-align: start; background-color: rgb(247, 247, 247);&quot;&gt;已完成的交易请求和相关的以太坊虚拟机状态变化。&lt;/span&gt;" style="text;strokeColor=none;fillColor=none;html=1;align=center;verticalAlign=middle;whiteSpace=wrap;rounded=0;fontSize=16;" vertex="1" parent="1">
          <mxGeometry x="458" y="23.36" width="239" height="30" as="geometry" />
        </mxCell>
        <mxCell id="-V5YBUerZ1B9hY4nsgt0-103" value="&lt;span style=&quot;color: rgb(76, 76, 76); font-family: __inter_879697, __inter_Fallback_879697, sans-serif; text-align: start; background-color: rgb(247, 247, 247);&quot;&gt;以太坊虚拟机上的代码执行请求&lt;/span&gt;" style="text;strokeColor=none;fillColor=none;html=1;align=center;verticalAlign=middle;whiteSpace=wrap;rounded=0;fontSize=16;" vertex="1" parent="1">
          <mxGeometry x="292" y="-67.36" width="46" height="293.36" as="geometry" />
        </mxCell>
      </root>
    </mxGraphModel>
  </diagram>
</mxfile>
